<svg xmlns="http://www.w3.org/2000/svg" viewBox="0 0 100 100" width="100" height="100">
  <circle cx="50" cy="50" r="46" fill="#ffffff" stroke="#222" stroke-width="3"/>
  <polygon points="50,30 62,39 57,53 43,53 38,39" fill="#222"/>
  <polygon points="50,18 58,24 54,32 46,32 42,24" fill="#222"/>
  <polygon points="76,42 82,52 75,61 66,55 69,45" fill="#222"/>
  <polygon points="24,42 31,45 34,55 25,61 18,52" fill="#222"/>
  <polygon points="40,66 46,60 56,60 62,66 56,76 46,76" fill="#222"/>
  <line x1="50" y1="32" x2="50" y2="30" stroke="#222" stroke-width="2"/>
  <line x1="62" y1="39" x2="69" y2="45" stroke="#222" stroke-width="2"/>
  <line x1="38" y1="39" x2="31" y2="45" stroke="#222" stroke-width="2"/>
  <line x1="57" y1="53" x2="56" y2="60" stroke="#222" stroke-width="2"/>
  <line x1="43" y1="53" x2="46" y2="60" stroke="#222" stroke-width="2"/>
</svg>
